<mxfile host="app.diagrams.net" modified="2020-12-20T09:56:12.231Z" agent="5.0 (Windows NT 10.0; WOW64) AppleWebKit/537.36 (KHTML, like Gecko) Chrome/78.0.3904.108 Safari/537.36" etag="jviVpOKFFl4mFgsrr6_c" version="14.1.1" type="github">
  <diagram id="Z8leyAuLE-9LgAecu5lI" name="Page-1">
    <mxGraphModel dx="1152" dy="620" grid="1" gridSize="10" guides="1" tooltips="1" connect="1" arrows="1" fold="1" page="1" pageScale="1" pageWidth="827" pageHeight="1169" math="0" shadow="0">
      <root>
        <mxCell id="0" />
        <mxCell id="1" parent="0" />
        <mxCell id="OaahqsESy45S-e0vQsAT-2" value="" style="rounded=0;whiteSpace=wrap;html=1;dashed=1;dashPattern=1 4;" vertex="1" parent="1">
          <mxGeometry x="139" y="220" width="561" height="560" as="geometry" />
        </mxCell>
        <mxCell id="OaahqsESy45S-e0vQsAT-4" value="外部" style="text;html=1;strokeColor=#666666;fillColor=#f5f5f5;align=center;verticalAlign=middle;whiteSpace=wrap;rounded=0;dashed=1;gradientColor=#b3b3b3;fontSize=20;" vertex="1" parent="1">
          <mxGeometry x="170" y="200" width="100" height="50" as="geometry" />
        </mxCell>
        <mxCell id="OaahqsESy45S-e0vQsAT-5" value="" style="rounded=1;whiteSpace=wrap;html=1;dashed=1;gradientColor=none;fontSize=20;strokeWidth=2;" vertex="1" parent="1">
          <mxGeometry x="204" y="330" width="420" height="400" as="geometry" />
        </mxCell>
        <mxCell id="OaahqsESy45S-e0vQsAT-6" value="服务" style="ellipse;whiteSpace=wrap;html=1;strokeWidth=2;gradientColor=none;fontSize=16;" vertex="1" parent="1">
          <mxGeometry x="240" y="510" width="80" height="40" as="geometry" />
        </mxCell>
        <mxCell id="OaahqsESy45S-e0vQsAT-7" value="业务" style="ellipse;whiteSpace=wrap;html=1;strokeWidth=2;gradientColor=none;fontSize=16;" vertex="1" parent="1">
          <mxGeometry x="370" y="420" width="80" height="40" as="geometry" />
        </mxCell>
        <mxCell id="OaahqsESy45S-e0vQsAT-8" value="数据" style="ellipse;whiteSpace=wrap;html=1;strokeWidth=2;gradientColor=none;fontSize=16;" vertex="1" parent="1">
          <mxGeometry x="490" y="510" width="80" height="40" as="geometry" />
        </mxCell>
        <mxCell id="OaahqsESy45S-e0vQsAT-9" value="资产" style="ellipse;whiteSpace=wrap;html=1;strokeWidth=2;gradientColor=none;fontSize=16;" vertex="1" parent="1">
          <mxGeometry x="370" y="585" width="80" height="40" as="geometry" />
        </mxCell>
        <mxCell id="OaahqsESy45S-e0vQsAT-18" value="" style="curved=1;endArrow=classic;html=1;fontSize=16;" edge="1" parent="1" target="OaahqsESy45S-e0vQsAT-7">
          <mxGeometry width="50" height="50" relative="1" as="geometry">
            <mxPoint x="270" y="510" as="sourcePoint" />
            <mxPoint x="320" y="450" as="targetPoint" />
            <Array as="points">
              <mxPoint x="270" y="480" />
              <mxPoint x="320" y="430" />
            </Array>
          </mxGeometry>
        </mxCell>
      </root>
    </mxGraphModel>
  </diagram>
</mxfile>
